<?xml version="1.0" encoding="utf-8"?>
<!-- Generator: Adobe Illustrator 26.5.0, SVG Export Plug-In . SVG Version: 6.00 Build 0)  -->
<svg version="1.1" id="Layer_1" xmlns="http://www.w3.org/2000/svg" xmlns:xlink="http://www.w3.org/1999/xlink" x="0px" y="0px"
	 viewBox="0 0 1594.9 401.3" style="enable-background:new 0 0 1594.9 401.3;" xml:space="preserve">
<g>
	<path d="M198.8,384.8V270.4c0-3.3-0.9-6.3-2.7-9.1c-1.8-2.7-4.2-4.7-7.2-6c-3.2-1.4-6.4-1.8-9.6-1.1c-3.3,0.6-6,2.1-8.4,4.5
		l-71.5,68.6l-71.3-68.6c-2.3-2.3-5.2-3.8-8.5-4.5c-3.3-0.6-6.5-0.2-9.5,1.1c-3.2,1.3-5.6,3.3-7.4,6c-1.8,2.7-2.7,5.8-2.7,9.1v114.4
		c0,4.6,1.6,8.4,4.8,11.7c3.2,3.3,7.1,4.8,11.7,4.8c4.6,0,8.4-1.6,11.7-4.8c3.3-3.3,4.8-7.1,4.8-11.7v-75.6l55,52.7
		c3.2,3.2,6.9,4.7,11.3,4.7s8.1-1.4,11.3-4.3v-0.2h0.2l0.2-0.2l54.7-52.7v75.6c0,4.6,1.6,8.4,4.8,11.7s7.1,4.8,11.7,4.8
		s8.4-1.6,11.7-4.8c3.3-3.3,4.8-7.1,4.8-11.7L198.8,384.8z"/>
	<path d="M525.1,270.4c0-4.6-1.6-8.4-4.8-11.7c-3.3-3.3-7.1-4.8-11.7-4.8H244.2c-4.6,0-8.4,1.6-11.7,4.8c-3.3,3.2-4.8,7.1-4.8,11.7
		c0,4.6,1.6,8.6,4.8,11.8c3.3,3.2,7.1,4.7,11.7,4.7h186.9v97.9c0,4.6,1.6,8.4,4.8,11.7c3.2,3.3,7.1,4.8,11.7,4.8
		c4.6,0,8.4-1.6,11.7-4.8c3.3-3.3,4.8-7.1,4.8-11.7v-97.9h44.4c4.6,0,8.4-1.6,11.7-4.7C523.5,279,525.1,275.1,525.1,270.4
		L525.1,270.4z"/>
	<path d="M382.4,384.8c0-4.6-1.6-8.4-4.8-11.7c-3.2-3.3-7.1-4.8-11.7-4.8H260.7v-24.2h105.1c4.6,0,8.4-1.6,11.7-4.8
		c3.3-3.3,4.8-7.1,4.8-11.7c0-4.6-1.6-8.4-4.8-11.7c-3.2-3.3-7.1-4.8-11.7-4.8H244.2c-4.6,0-8.4,1.6-11.7,4.8
		c-3.3,3.2-4.8,7.1-4.8,11.7v57.2c0,4.6,1.6,8.4,4.8,11.7c3.2,3.3,7.1,4.8,11.7,4.8h121.7c4.6,0,8.4-1.6,11.7-4.8
		C380.8,393.3,382.4,389.4,382.4,384.8z"/>
	<path d="M627,343.9c-1.2-2.7-2.8-5-4.8-7c-2-2-4.4-3.6-7.1-4.7c-2.7-1.2-5.5-1.8-8.6-1.8s-5.9,0.6-8.6,1.8c-2.7,1.2-5,2.7-7,4.7
		c-2,2-3.6,4.3-4.7,7c-1.2,2.7-1.8,5.5-1.8,8.6c0,3,0.6,5.9,1.8,8.6c1.2,2.7,2.7,5,4.7,7c2,2,4.3,3.6,7,4.7c2.7,1.2,5.5,1.8,8.6,1.8
		s5.9-0.6,8.6-1.8c2.7-1.2,5.1-2.7,7.1-4.7c2-2,3.7-4.3,4.8-7c1.2-2.7,1.8-5.5,1.8-8.6C628.8,349.4,628.2,346.5,627,343.9z"/>
	<path d="M651.3,282.8c-4-8.8-10-15.9-18.2-21.1c-8-5.2-16.9-7.9-26.6-7.9c-9.8,0-18.5,2.6-26.6,7.9c-4,2.6-7.5,5.7-10.6,9.2
		c-3.1,3.5-5.6,7.5-7.5,11.9L518.3,378c-2,4.1-2,8.3-0.4,12.6c1.7,4.3,4.6,7.3,8.7,9.3c4.1,1.9,8.3,2,12.6,0.4
		c4.3-1.6,7.3-4.6,9.3-8.7l43.4-95.2c1.4-2.9,3.4-5.2,6-6.9c2.6-1.7,5.5-2.6,8.7-2.6c3.2,0,6.1,0.9,8.8,2.6c2.7,1.7,4.7,4,5.9,6.9
		l43.6,95.2c1.3,3.2,3.4,5.6,6.1,7.2c2.7,1.7,5.6,2.5,8.8,2.5c2.6,0,5-0.5,7-1.4c4.1-1.9,7-5,8.6-9.3c1.6-4.3,1.4-8.5-0.5-12.6
		L651.3,282.8L651.3,282.8z"/>
	<path d="M866.2,277.5c1.9-4.3,2-8.5,0.4-12.7c-1.7-4.2-4.6-7.3-8.7-9.2c-4.1-1.9-8.3-2.1-12.6-0.5c-4.3,1.6-7.3,4.5-9.3,8.6
		l-43.4,95.2c-1.4,2.9-3.4,5.2-6,6.9c-2.6,1.7-5.5,2.6-8.7,2.6s-6.1-0.8-8.8-2.6c-2.7-1.7-4.7-4-6.1-6.9l-43.4-95.2
		c-2-4.1-5-7-9.3-8.6c-4.3-1.6-8.5-1.4-12.6,0.5c-4.1,2-7,5-8.6,9.2c-1.6,4.2-1.4,8.4,0.5,12.7l43.4,95.2c4,8.7,10,15.6,18.2,20.9
		c8,5.3,16.9,7.9,26.6,7.9s18.5-2.6,26.6-7.9c8-5.2,14-12.2,18-20.9L866.2,277.5L866.2,277.5z"/>
	<path d="M1026.5,344.1c4.6,0,8.4-1.6,11.7-4.8c3.3-3.2,4.8-7.1,4.8-11.7c0-4.6-1.6-8.4-4.8-11.7c-3.3-3.3-7.1-4.8-11.7-4.8H904.8
		c-4,0-7.4,1.2-10.3,3.5c-2.9,2.3-4.8,5.3-5.8,8.9c0,0.4-0.1,0.7-0.2,0.8c-0.1,0.6-0.2,1.1-0.2,1.7v58.9c0,1.5,0,2.6,0.2,3.3
		c0.1,0.1,0.2,0.4,0.2,0.8c1,3.6,2.9,6.6,5.8,8.9c2.9,2.3,6.3,3.5,10.3,3.5h121.7c4.6,0,8.4-1.6,11.7-4.8c3.3-3.3,4.8-7.1,4.8-11.7
		c0-4.6-1.6-8.4-4.8-11.7c-3.3-3.3-7.1-4.8-11.7-4.8H921.3v-24.2L1026.5,344.1L1026.5,344.1z"/>
	<path d="M1239.6,384.8c0-4.6-1.6-8.4-4.7-11.7c-3.2-3.3-7.1-4.8-11.8-4.8h-12.6l-14.2-15.5c6.5-2.5,12.2-6.3,17.3-11.3
		c4.8-4.8,8.5-10.3,11.2-16.5c2.6-6.2,3.9-12.8,3.9-19.8c0-7-1.3-13.4-3.9-19.6s-6.3-11.7-11.2-16.5c-4.8-4.8-10.3-8.6-16.5-11.2
		c-6.2-2.6-12.7-3.9-19.6-3.9H904.9c-4.6,0-8.4,1.6-11.7,4.8c-3.3,3.2-4.8,7.1-4.8,11.7c0,4.6,1.6,8.6,4.8,11.8
		c3.3,3.2,7.1,4.7,11.7,4.7h272.6c2.5,0,4.8,0.5,7,1.4c2.2,1,4.1,2.3,5.8,3.9c1.6,1.6,3,3.6,3.9,5.8c1,2.2,1.4,4.6,1.4,7
		s-0.5,4.8-1.4,7.1c-1,2.3-2.3,4.2-3.9,5.9c-1.6,1.7-3.6,3-5.8,3.9c-2.2,0.9-4.6,1.4-7,1.4h-87c-4,0-7.4,1.2-10.3,3.5
		c-2.9,2.3-4.8,5.3-5.8,8.9c-0.1,0.7-0.2,1.4-0.3,2c-0.1,0.7-0.1,1.4-0.1,2v44.8c0,4.6,1.6,8.4,4.8,11.7c3.2,3.3,7.1,4.8,11.7,4.8
		c4.6,0,8.4-1.6,11.7-4.8c3.3-3.3,4.8-7.1,4.8-11.7v-28.3h47.5l36.6,39.4c3.2,3.6,7.2,5.4,12.2,5.4h19.8c4.7,0,8.6-1.6,11.8-4.8
		C1238.1,393.2,1239.6,389.4,1239.6,384.8z"/>
	<path d="M1408.8,356.3c0-6.2-1.1-12-3.4-17.4c-2.3-5.4-5.5-10.3-9.8-14.6s-9.1-7.5-14.6-9.8c-5.4-2.3-11.3-3.4-17.4-3.4h-64.5
		c-3.3,0-6.1-1.2-8.5-3.5c-2.3-2.3-3.5-5.2-3.5-8.5c0-3.3,1.2-6.2,3.5-8.6c2.3-2.4,5.2-3.6,8.5-3.6h84.9c4.6,0,8.4-1.6,11.7-4.7
		c3.3-3.2,4.8-7.1,4.8-11.8s-1.6-8.4-4.8-11.7c-3.3-3.3-7.1-4.8-11.7-4.8h-84.9c-6,0-11.8,1.2-17.3,3.4c-5.4,2.3-10.3,5.5-14.6,9.8
		c-4.3,4.4-7.5,9.3-9.8,14.6c-2.3,5.4-3.4,11.2-3.4,17.3s1.1,11.8,3.4,17.2c2.3,5.4,5.5,10.3,9.8,14.6c4.3,4.3,9.1,7.5,14.6,9.8
		c5.4,2.3,11.2,3.4,17.3,3.4h64.5c3.4,0,6.3,1.2,8.7,3.5c2.3,2.3,3.5,5.3,3.5,8.7s-1.2,6.1-3.5,8.5c-2.3,2.3-5.3,3.5-8.7,3.5h-84.7
		c-4.6,0-8.4,1.6-11.7,4.8c-3.3,3.3-4.8,7.1-4.8,11.7c0,4.6,1.6,8.4,4.8,11.7c3.3,3.3,7.1,4.8,11.7,4.8h84.7c6.2,0,12-1.2,17.4-3.4
		s10.3-5.5,14.6-9.8s7.5-9.1,9.8-14.6C1407.7,368.2,1408.8,362.4,1408.8,356.3L1408.8,356.3z"/>
	<path d="M1549.4,357.6c-8.3,7.2-19.8,10.7-34.5,10.7h-9.7c-14.7,0-26.2-3.6-34.5-10.7c-8.3-7.2-12.4-17.2-12.4-29.9
		c0-12.8,4.1-22.8,12.4-29.9c8.3-7.2,19.8-10.7,34.5-10.7h9.7c14.7,0,26.2,3.6,34.5,10.7c8.3,7.2,12.4,17.2,12.4,29.9
		C1561.9,340.4,1557.7,350.4,1549.4,357.6z M1589.5,298.7c-3.6-8.9-8.8-16.7-15.7-23.3c-7.3-7-15.9-12.4-25.8-16
		c-9.9-3.6-20.9-5.5-33.1-5.5h-9.7c-12.1,0-23.1,1.8-33.1,5.5c-9.9,3.7-18.5,9-25.8,16c-6.9,6.6-12.1,14.4-15.7,23.3
		c-3.6,8.9-5.4,18.6-5.4,28.9c0,10.3,1.8,19.9,5.4,28.9c3.6,9,8.8,16.7,15.7,23.3c7.3,7,15.9,12.4,25.8,16
		c9.9,3.7,20.9,5.5,33.1,5.5h9.7c12.1,0,23.1-1.8,33.1-5.5c9.9-3.6,18.5-9,25.8-16c6.9-6.6,12.1-14.4,15.7-23.3
		c3.6-8.9,5.4-18.6,5.4-28.9C1594.9,317.3,1593.2,307.7,1589.5,298.7z"/>
	<polygon points="138,164.9 42.9,164.9 42.9,126.2 107.3,126.2 107.3,86.9 42.9,86.9 42.9,47.8 138,47.8 138,8.8 3.9,8.8 3.9,204.3 
		138,204.3 	"/>
	<path d="M374.6,47.8h39c5.3,0,10.4,0.9,15.2,3c4.8,2.1,8.9,4.8,12.5,8.3c3.6,3.5,6.3,7.8,8.3,12.5c2.1,4.8,3,9.8,3,15.2
		c0,5.4-0.9,10.4-3,15.5c-2.1,4.8-4.8,8.9-8.3,12.5c-3.5,3.6-7.8,6.3-12.5,8.3c-4.8,2.1-9.8,3-15.2,3h-39V47.8z M374.3,165.2h39
		c10.7,0,20.9-2.1,30.4-6.3c9.5-3.9,18.2-9.5,25-16.7c6.8-7.2,12.5-15.5,16.7-25c4.2-9.5,6.3-19.7,6.3-30.4c0-7.2-0.9-14-2.7-20.5
		c-1.8-6.8-4.5-12.8-8-18.8c-3.3-5.7-7.4-11-12.2-15.8c-4.8-4.8-10.1-8.9-15.8-12.2c-5.7-3.6-11.9-6.3-18.5-8
		c-6.8-1.8-13.7-2.7-20.9-2.7h-78.4v195.5h39L374.3,165.2L374.3,165.2z"/>
	<path d="M548.3,82.7c3.3-7.2,7.8-13.7,13.4-19.1c5.7-5.3,12.2-9.8,19.7-12.8c7.4-3.3,15.5-4.8,24.1-4.8s16.4,1.5,24.1,4.8
		c7.4,3,14,7.4,19.7,12.8c5.7,5.3,10.1,11.6,13.4,19.1c3.3,7.4,4.8,15.2,4.8,23.5s-1.8,16.1-4.8,23.2c-3.3,7.2-7.8,13.7-13.4,19.1
		c-5.3,5.3-11.9,9.5-19.7,12.8c-7.4,3.3-15.5,4.8-24.1,4.8s-16.7-1.5-24.1-4.8c-7.4-3-14-7.4-19.7-12.8
		c-5.7-5.3-10.1-11.9-13.4-19.1c-0.6-1.3-1.2-2.7-1.7-4.2h50.5V87.4h-50.7C547,85.8,547.6,84.2,548.3,82.7L548.3,82.7z M517.9,155.4
		c4.5,7.4,9.5,13.7,15.8,19.9c6.3,6.3,13.1,11.3,20.6,15.5c7.4,4.1,15.5,7.4,24.1,9.8c8.6,2.4,17.6,3.6,26.8,3.6s18.2-1.2,26.8-3.6
		c8.6-2.4,16.7-5.7,24.1-9.8c7.4-4.5,14.3-9.5,20.6-15.5c6.3-6,11.3-12.8,15.8-19.9c4.5-7.2,7.8-14.9,10.1-23.2
		c2.4-8.3,3.6-17,3.6-25.9c0-9-1.2-17.6-3.6-25.9C700.3,72,697,64.2,692.6,57c-4.5-7.2-9.5-13.7-15.8-19.7c-6.3-6-13.1-11-20.6-15.2
		c-7.4-4.2-15.5-7.4-24.1-9.8c-8.6-2.4-17.6-3.6-26.8-3.6s-18.2,1.2-26.8,3.6c-8.6,2.4-16.7,5.7-24.1,9.8
		c-7.4,4.1-14.6,9.3-20.6,15.2c-6,6-11.3,12.5-15.8,19.7c-4.2,7.2-7.8,14.9-10.1,23.2c-2.4,8.3-3.6,17-3.6,25.9
		c0,9,1.2,17.6,3.6,25.9C510.1,140.5,513.4,148.2,517.9,155.4z"/>
	<polygon points="264.6,0 252.1,0 252.1,11.4 252.1,12.4 264.6,12.4 	"/>
	<polygon points="286.9,87.2 286.9,88.2 299.3,88.2 299.3,75.8 286.9,75.8 	"/>
	<path d="M261.8,57.5V46.1h12.4v12.4h-12.4V57.5z M194.3,204.3l37.9-63.2l37.5,63.2h47.7l-60.2-97.7l20.2-32.8h-7.1V61.4h12.4v3.8
		l7-11.4V39.4h-12.4V27h-18.4l-26.7,44.8L194.3,8.8h-47.1l59.9,97.7l-59.9,97.7H194.3z"/>
	<path d="M298.2,25.5H292v-6.2h6.2V25.5z M317.4,8.8h-39.7v18.1h12.1v12.4h8.9L317.4,8.8L317.4,8.8z"/>
	<polygon points="314.3,31.5 314.3,32.3 324.2,32.3 324.2,22.4 314.3,22.4 	"/>
	<polygon points="306.7,39.2 306.7,39.9 314.3,39.9 314.3,32.3 306.7,32.3 	"/>
	<polygon points="898.4,174.4 899.4,166.7 887.1,131.3 887.6,115.1 887.9,102.4 894.1,79.6 894.2,79.1 891.4,71.1 891.7,63.1 
		891.7,62.8 894.1,56.6 888.8,56.6 879.1,50.6 853.8,28.6 823.3,14.5 812.1,9.3 771.3,0.5 757.2,2.2 750.4,3.1 744.5,14.7 
		747.6,25.7 750.8,36.9 759,48.6 759.3,49 765.3,57.6 770.4,54 769,62.7 776.3,73.7 777.8,76 783.2,84.2 787.9,91.3 789.6,100.6 
		789.6,100.6 790.7,106.6 793.3,120.2 800.6,133 813.4,138.8 825.2,139.6 831.5,140.1 820.4,147.3 818.5,156.1 821.4,166.1 
		825.8,167.4 823.9,173.3 838,189.3 855.9,198.7 876.2,203.4 878.4,203.9 882.8,201.8 886.5,203.6 896.1,192.6 	"/>
	<path d="M993.7,81.7h9V65h17.4v17.3h-17.4v8.7h-9V81.7z M904.2,174.2l2.3,18.2l9.5,11l3.8-1.8l4.3,2.1l2.3-0.5l20.3-4.6l17.9-9.4
		l14.1-16l-1.9-5.9l4.4-1.3l2.8-9.9l-1.9-8.9l-11.1-7.3l6.4-0.5l11.8-0.9l9.1-4h-13v-17.3h17.3v14.5l6.6-11.6l0.6-2.9h7.3V99.9h-4
		l1.6-8.6l4.7-7.2l0.6-0.8l0.4-0.6l6-9l4-6.1h7.1V57.3l5.9-8.4l0.3-0.4l0.5-0.7h7.2v13.4h13.4V47.8h-10V30.4h-17.3v8.7h-9.1v-8.7
		h-8.2v17.3h-17.4v8.9h-9v6.7h-6.6v-6.9h6.6v-9.1h9V30.4h17v-9.1h9.1V30h8.7V13h17.3v17.3h17.3V13h-14.9l-5.1-10l-6.8-0.8l-14.1-1.7
		l-40.7,8.9l-11.2,5.2l-30.5,14l-25.3,22l-9.7,6h-5.3l2.4,6.3V63l0.3,8l-2.8,8l0.1,0.5l6.1,22.8l0.4,12.7l0.5,16.2l-12.3,35.4l1,7.6
		L904.2,174.2z"/>
	<polygon points="1038.4,83.9 1021,83.9 1021,99.8 1021,101.2 1038.4,101.2 	"/>
	<rect x="1023.3" y="109" width="17.3" height="17.4"/>
	<polygon points="1054.8,65.9 1040.7,65.9 1040.7,67.4 1040.7,80 1054.8,80 	"/>
	<rect x="1049.3" y="86.3" width="17.3" height="17.3"/>
	<polygon points="1063.4,44.3 1064.8,44.3 1072.4,44.3 1072.4,34.9 1063.4,34.9 	"/>
	<rect x="1072.2" y="65.2" width="9" height="9.4"/>
	<rect x="1076.6" y="51.2" width="9" height="9.4"/>
	<rect x="1081.2" y="28.3" width="6.6" height="6.6"/>
	<rect x="1094" y="41.1" width="9" height="9.4"/>
	<rect x="1109.2" y="33.5" width="6.6" height="6.9"/>
</g>
</svg>
