<?xml version="1.0" encoding="utf-8"?>
<!-- Generator: Adobe Illustrator 27.0.0, SVG Export Plug-In . SVG Version: 6.00 Build 0)  -->
<svg version="1.1" id="Camada_1" xmlns="http://www.w3.org/2000/svg" xmlns:xlink="http://www.w3.org/1999/xlink" x="0px" y="0px"
	 viewBox="0 0 1366 768" style="enable-background:new 0 0 1366 768;" xml:space="preserve">
<style type="text/css">
	.st0{enable-background:new    ;}
	.st1{fill:#FFFFFF;}
</style>
<g>
	<g class="st0">
		<path class="st1" d="M188.77,379.01c2.46,1.01,4.42,2.63,5.88,4.87c1.45,2.24,2.18,4.7,2.18,7.39v93.01
			c0,3.69-1.32,6.85-3.95,9.49c-2.63,2.63-5.79,3.95-9.49,3.95c-3.69,0-6.86-1.32-9.49-3.95c-2.63-2.63-3.95-5.79-3.95-9.49v-61.45
			l-44.49,42.81l-0.17,0.17h-0.17v0.17c-2.58,2.35-5.62,3.52-9.15,3.52c-3.52,0-6.57-1.28-9.15-3.86l-44.66-42.81v61.45
			c0,3.69-1.32,6.85-3.95,9.49c-2.63,2.63-5.79,3.95-9.49,3.95s-6.86-1.32-9.49-3.95c-2.63-2.63-3.95-5.79-3.95-9.49v-93.01
			c0-2.68,0.73-5.15,2.19-7.39c1.45-2.24,3.47-3.86,6.04-4.87c2.46-1.12,5.04-1.43,7.72-0.92c2.69,0.5,4.98,1.71,6.88,3.61
			l57.92,55.74l58.09-55.74c1.9-1.9,4.17-3.11,6.8-3.61C183.59,377.58,186.19,377.89,188.77,379.01z"/>
		<path class="st1" d="M448.65,377.83c3.69,0,6.85,1.32,9.49,3.95c2.63,2.63,3.95,5.79,3.95,9.49c0,3.81-1.32,7-3.95,9.57
			c-2.63,2.58-5.79,3.86-9.49,3.86h-36.09v79.58c0,3.69-1.32,6.85-3.95,9.49c-2.63,2.63-5.79,3.95-9.49,3.95
			c-3.69,0-6.86-1.32-9.49-3.95c-2.63-2.63-3.95-5.79-3.95-9.49v-79.58H233.75c-3.69,0-6.86-1.28-9.49-3.86
			c-2.63-2.57-3.95-5.76-3.95-9.57c0-3.69,1.31-6.85,3.95-9.49c2.63-2.63,5.79-3.95,9.49-3.95H448.65z M247.19,451.2v19.64h85.45
			c3.69,0,6.86,1.32,9.49,3.95c2.63,2.63,3.95,5.79,3.95,9.49c0,3.69-1.31,6.85-3.95,9.49c-2.63,2.63-5.79,3.95-9.49,3.95h-98.88
			c-3.69,0-6.86-1.32-9.49-3.95c-2.63-2.63-3.95-5.79-3.95-9.49v-46.51c0-3.69,1.31-6.85,3.95-9.49c2.63-2.63,5.79-3.95,9.49-3.95
			h98.88c3.69,0,6.86,1.32,9.49,3.95c2.63,2.63,3.95,5.79,3.95,9.49c0,3.69-1.31,6.86-3.95,9.49c-2.63,2.63-5.79,3.95-9.49,3.95
			H247.19z"/>
		<path class="st1" d="M599.91,478.73c1.56,3.36,1.71,6.77,0.42,10.24c-1.29,3.47-3.61,5.99-6.97,7.56
			c-1.68,0.79-3.58,1.18-5.71,1.18c-2.58,0-4.95-0.67-7.14-2.02c-2.18-1.34-3.83-3.3-4.95-5.88l-35.43-77.39
			c-1.01-2.35-2.6-4.23-4.78-5.62c-2.18-1.4-4.56-2.1-7.13-2.1c-2.58,0-4.93,0.7-7.05,2.1c-2.13,1.4-3.75,3.27-4.87,5.62
			l-35.26,77.39c-1.57,3.36-4.09,5.71-7.56,7.05c-3.47,1.34-6.88,1.23-10.24-0.34c-3.36-1.56-5.71-4.08-7.05-7.56
			c-1.34-3.47-1.23-6.88,0.34-10.24l35.26-77.39c1.56-3.58,3.61-6.8,6.13-9.66c2.52-2.85,5.4-5.34,8.65-7.47
			c6.6-4.25,13.82-6.38,21.66-6.38c7.94,0,15.16,2.13,21.65,6.38c6.6,4.26,11.53,9.96,14.77,17.13L599.91,478.73z M528.22,439.95
			c2.46,0,4.78,0.48,6.96,1.43c2.18,0.95,4.12,2.24,5.79,3.86c1.68,1.62,2.99,3.52,3.95,5.71c0.95,2.18,1.43,4.51,1.43,6.96
			c0,2.47-0.48,4.79-1.43,6.97c-0.95,2.18-2.27,4.09-3.95,5.71c-1.68,1.62-3.61,2.91-5.79,3.86c-2.18,0.95-4.51,1.42-6.96,1.42
			c-2.47,0-4.79-0.47-6.97-1.42c-2.18-0.95-4.09-2.24-5.71-3.86c-1.62-1.62-2.91-3.53-3.86-5.71c-0.95-2.18-1.42-4.5-1.42-6.97
			c0-2.46,0.47-4.78,1.42-6.96c0.95-2.18,2.24-4.09,3.86-5.71c1.62-1.62,3.53-2.91,5.71-3.86
			C523.44,440.43,525.76,439.95,528.22,439.95z"/>
		<path class="st1" d="M732.54,379.17c3.36,1.57,5.71,4.06,7.05,7.47c1.34,3.42,1.23,6.86-0.34,10.33l-35.43,77.39
			c-3.25,7.05-8.12,12.7-14.6,16.96c-6.61,4.26-13.83,6.38-21.66,6.38c-7.95,0-15.17-2.13-21.66-6.38
			c-6.6-4.25-11.53-9.91-14.77-16.96l-35.26-77.39c-1.57-3.47-1.71-6.91-0.42-10.33c1.28-3.41,3.61-5.9,6.96-7.47
			c3.36-1.56,6.77-1.71,10.24-0.42s5.99,3.61,7.56,6.96l35.26,77.39c1.12,2.35,2.77,4.23,4.95,5.62c2.18,1.4,4.56,2.1,7.13,2.1
			c2.57,0,4.92-0.7,7.05-2.1c2.13-1.4,3.75-3.27,4.87-5.62l35.26-77.39c1.56-3.36,4.08-5.68,7.55-6.96S729.18,377.61,732.54,379.17z
			"/>
		<path class="st1" d="M1029.35,470.84c3.81,0,6.99,1.32,9.57,3.95c2.57,2.63,3.86,5.79,3.86,9.49c0,3.69-1.29,6.85-3.86,9.49
			c-2.58,2.63-5.77,3.95-9.57,3.95h-16.12c-4.03,0-7.33-1.45-9.9-4.37l-29.72-32.07H935v23c0,3.69-1.32,6.85-3.95,9.49
			c-2.63,2.63-5.79,3.95-9.49,3.95s-6.86-1.32-9.49-3.95c-2.63-2.63-3.95-5.79-3.95-9.49v-36.43c0-0.56,0.03-1.12,0.08-1.68
			c0.06-0.56,0.14-1.11,0.25-1.68c0.78-2.91,2.35-5.31,4.7-7.22c2.35-1.9,5.15-2.86,8.39-2.86h70.68c2.01,0,3.92-0.39,5.71-1.17
			c1.79-0.78,3.36-1.85,4.7-3.19c1.34-1.34,2.4-2.94,3.19-4.79c0.78-1.85,1.17-3.78,1.17-5.79s-0.39-3.92-1.17-5.71
			c-0.79-1.79-1.85-3.36-3.19-4.7c-1.34-1.34-2.91-2.41-4.7-3.19c-1.79-0.78-3.69-1.18-5.71-1.18H770.64
			c-3.69,0-6.86-1.28-9.49-3.86c-2.63-2.57-3.95-5.76-3.95-9.57c0-3.69,1.31-6.85,3.95-9.49c2.63-2.63,5.79-3.95,9.49-3.95h221.61
			c5.59,0,10.91,1.07,15.95,3.19c5.03,2.13,9.51,5.15,13.43,9.06c3.92,3.92,6.94,8.39,9.06,13.43c2.13,5.03,3.19,10.35,3.19,15.95
			c0,5.71-1.06,11.08-3.19,16.12c-2.13,5.03-5.15,9.51-9.06,13.43c-4.14,4.14-8.84,7.22-14.1,9.23l11.58,12.59H1029.35z
			 M784.08,451.2v19.64h85.45c3.69,0,6.85,1.32,9.49,3.95c2.63,2.63,3.95,5.79,3.95,9.49c0,3.69-1.32,6.85-3.95,9.49
			c-2.63,2.63-5.79,3.95-9.49,3.95h-98.88c-3.25,0-6.05-0.95-8.39-2.86c-2.35-1.9-3.92-4.31-4.7-7.22c0-0.34-0.06-0.56-0.17-0.67
			c-0.11-0.56-0.17-1.45-0.17-2.68v-46.51c0-0.45,0-0.89,0-1.34c0-0.45,0.06-0.89,0.17-1.34c0.11-0.11,0.17-0.34,0.17-0.67
			c0.78-2.91,2.35-5.31,4.7-7.22c2.35-1.9,5.15-2.85,8.39-2.85h98.88c3.69,0,6.85,1.32,9.49,3.95c2.63,2.63,3.95,5.79,3.95,9.49
			c0,3.69-1.32,6.86-3.95,9.49c-2.63,2.63-5.79,3.95-9.49,3.95H784.08z"/>
		<path class="st1" d="M1157.7,427.11c4.42,1.85,8.37,4.51,11.84,7.97c3.47,3.47,6.13,7.41,7.98,11.84
			c1.85,4.42,2.77,9.15,2.77,14.19c0,4.92-0.92,9.6-2.77,14.02c-1.85,4.42-4.51,8.37-7.98,11.83c-3.47,3.47-7.41,6.13-11.84,7.98
			c-4.42,1.85-9.15,2.77-14.18,2.77h-68.83c-3.69,0-6.85-1.32-9.49-3.95c-2.63-2.63-3.95-5.79-3.95-9.49c0-3.69,1.32-6.85,3.95-9.49
			c2.63-2.63,5.79-3.95,9.49-3.95h68.83c2.79,0,5.15-0.95,7.05-2.86c1.9-1.9,2.85-4.2,2.85-6.88c0-2.8-0.95-5.15-2.85-7.05
			c-1.9-1.9-4.26-2.85-7.05-2.85h-52.38c-4.93,0-9.6-0.92-14.02-2.77c-4.42-1.85-8.37-4.5-11.84-7.97
			c-3.47-3.47-6.13-7.41-7.97-11.84c-1.85-4.42-2.77-9.09-2.77-14.02c0-5.04,0.92-9.74,2.77-14.1c1.85-4.37,4.5-8.34,7.97-11.92
			c3.47-3.47,7.42-6.13,11.84-7.98c4.42-1.85,9.09-2.77,14.02-2.77h69c3.69,0,6.85,1.32,9.49,3.95c2.63,2.63,3.95,5.79,3.95,9.49
			c0,3.81-1.32,7-3.95,9.57c-2.63,2.58-5.79,3.86-9.49,3.86h-69c-2.69,0-4.98,0.98-6.88,2.94c-1.9,1.96-2.85,4.28-2.85,6.97
			c0,2.69,0.95,4.98,2.85,6.88c1.9,1.9,4.2,2.85,6.88,2.85h52.38C1148.55,424.33,1153.28,425.26,1157.7,427.11z"/>
		<path class="st1" d="M1314.42,395.29c5.59,5.37,9.85,11.7,12.76,18.97c2.91,7.27,4.37,15.11,4.37,23.5
			c0,8.39-1.45,16.23-4.37,23.5c-2.91,7.28-7.16,13.6-12.76,18.97c-5.93,5.71-12.93,10.05-20.99,13.01
			c-8.06,2.97-17.01,4.45-26.86,4.45h-7.89c-9.85,0-18.8-1.48-26.86-4.45c-8.06-2.96-15.05-7.3-20.98-13.01
			c-5.6-5.37-9.85-11.69-12.76-18.97c-2.91-7.27-4.37-15.11-4.37-23.5c0-8.39,1.45-16.23,4.37-23.5c2.91-7.27,7.16-13.6,12.76-18.97
			c5.93-5.71,12.93-10.04,20.98-13.01c8.06-2.96,17.01-4.45,26.86-4.45h7.89c9.85,0,18.8,1.49,26.86,4.45
			C1301.49,385.25,1308.48,389.58,1314.42,395.29z M1266.57,470.84c11.97,0,21.32-2.91,28.04-8.73
			c6.72-5.82,10.07-13.93,10.07-24.34c0-10.41-3.35-18.52-10.07-24.34c-6.71-5.82-16.06-8.73-28.04-8.73h-7.89
			c-11.98,0-21.32,2.91-28.04,8.73c-6.71,5.82-10.07,13.93-10.07,24.34c0,10.41,3.36,18.52,10.07,24.34
			c6.71,5.82,16.06,8.73,28.04,8.73H1266.57z"/>
	</g>
	<g>
		<g>
			<polygon class="st1" points="147.44,305.48 147.44,337.45 38.45,337.45 38.45,178.57 147.44,178.57 147.44,210.3 70.18,210.3 
				70.18,242.02 122.49,242.02 122.49,273.99 70.18,273.99 70.18,305.48 			"/>
		</g>
		<g>
			<path class="st1" d="M432.74,225.31c1.45,5.33,2.18,10.9,2.18,16.71c0,8.72-1.7,16.95-5.09,24.7
				c-3.39,7.75-7.99,14.53-13.56,20.34c-5.57,5.81-12.59,10.41-20.34,13.56c-7.75,3.39-15.98,5.09-24.7,5.09H339.5v31.73h-31.73
				V178.57h63.7c5.81,0,11.38,0.73,16.95,2.18c5.33,1.45,10.41,3.63,15.02,6.54c4.6,2.66,8.96,6.05,12.84,9.93s7.27,8.23,9.93,12.84
				C429.11,214.9,431.29,219.74,432.74,225.31z M403.19,242.02c0-4.36-0.73-8.48-2.42-12.35c-1.7-3.88-3.88-7.27-6.78-10.17
				c-2.91-2.91-6.3-5.09-10.17-6.78s-7.99-2.42-12.35-2.42h-31.73v63.7h31.73c4.36,0,8.48-0.73,12.35-2.42
				c3.88-1.7,7.27-3.88,10.17-6.78c2.91-2.91,5.09-6.3,6.78-10.17C402.47,250.5,403.19,246.38,403.19,242.02z"/>
		</g>
		<g>
			<g>
				<path class="st1" d="M606.4,236.7c-1.94-6.78-4.6-13.08-8.23-18.89c-3.63-5.81-7.75-11.14-12.84-15.98
					c-5.09-4.84-10.66-8.96-16.71-12.35c-6.05-3.39-12.59-6.05-19.62-7.99c-7.02-1.94-14.29-2.91-21.8-2.91
					c-7.51,0-14.77,0.97-21.8,2.91c-7.02,1.94-13.56,4.6-19.62,7.99c-6.05,3.39-11.87,7.51-16.71,12.35s-9.2,10.17-12.84,15.98
					c-3.39,5.81-6.3,12.11-8.23,18.89c-1.94,6.78-2.91,13.81-2.91,21.07s0.97,14.29,2.91,21.07c1.94,6.78,4.6,13.08,8.23,18.89
					c3.63,6.05,7.75,11.14,12.84,16.23c5.09,5.09,10.66,9.2,16.71,12.59c6.05,3.39,12.59,6.05,19.62,7.99
					c7.02,1.94,14.29,2.91,21.8,2.91c7.51,0,14.77-0.97,21.8-2.91c7.02-1.94,13.56-4.6,19.62-7.99c6.05-3.63,11.63-7.75,16.71-12.59
					c5.09-4.84,9.2-10.41,12.84-16.23c3.63-5.81,6.3-12.11,8.23-18.89c1.94-6.78,2.91-13.81,2.91-21.07S608.33,243.48,606.4,236.7z
					 M573.94,276.66c-2.66,5.81-6.3,11.14-10.9,15.5c-4.36,4.36-9.69,7.75-15.98,10.41c-6.05,2.66-12.59,3.88-19.62,3.88
					c-6.78,0-13.56-1.21-19.62-3.88c-6.05-2.42-11.38-6.05-15.98-10.41c-4.6-4.36-8.23-9.69-10.9-15.5
					c-0.51-1.11-0.97-2.23-1.38-3.39h41.1v-30.76h-41.22c0.44-1.31,0.94-2.59,1.5-3.88c2.66-5.81,6.3-11.14,10.9-15.5
					c4.6-4.36,9.93-7.99,15.98-10.41c6.05-2.66,12.59-3.88,19.62-3.88c6.78,0,13.32,1.21,19.62,3.88
					c6.05,2.42,11.38,6.05,15.98,10.41c4.6,4.36,8.23,9.45,10.9,15.5s3.88,12.35,3.88,19.13
					C577.82,264.55,576.36,270.85,573.94,276.66z"/>
			</g>
		</g>
		<g>
			<polygon class="st1" points="240.2,180.65 240.2,181.49 250.3,181.49 250.3,171.39 240.2,171.39 			"/>
			<polygon class="st1" points="268.45,242.28 268.45,243.12 278.55,243.12 278.55,233.02 268.45,233.02 			"/>
			<g>
				<path class="st1" d="M260.73,231.36h-5.76v-0.84v-9.26h10.1v3.06l5.69-9.24v-11.69h-10.1v-0.84v-9.26H245.7l-21.73,36.39
					l-30.76-51.1h-38.27l48.68,79.44l-48.68,79.44h38.27l30.76-51.34l30.52,51.34h38.75l-48.92-79.44L260.73,231.36z M248.05,218.14
					v-9.26h10.1v10.1h-10.1V218.14z"/>
				<path class="st1" d="M293.24,178.57h-32.29v14.71h9.81v10.1h7.2L293.24,178.57z M272.62,192.08v-0.42v-4.63h5.05v5.05H272.62z"
					/>
			</g>
			<polygon class="st1" points="290.71,196.97 290.71,197.64 298.8,197.64 298.8,189.56 290.71,189.56 			"/>
			<polygon class="st1" points="284.56,203.29 284.56,203.8 290.71,203.8 290.71,197.64 284.56,197.64 			"/>
		</g>
	</g>
	<g>
		<g id="XMLID_00000009553752827270041970000003645353508307989947_">
			<g>
				<polygon class="st1" points="645.21,173.9 640.41,183.34 646.21,177.94 650.7,173.21 				"/>
				<polygon class="st1" points="640.41,183.34 642.93,192.28 647.75,184.1 653.46,182.75 659.28,181.37 652.11,178.17 
					646.21,177.94 				"/>
				<polygon class="st1" points="642.93,192.28 645.5,201.42 648.11,198.7 653.46,182.75 647.75,184.1 				"/>
				<polygon class="st1" points="648.11,198.7 645.5,201.42 653.86,196.93 652.11,194.54 				"/>
				<polygon class="st1" points="645.5,201.42 652.16,210.91 653.86,196.93 				"/>
				<polygon class="st1" points="650.7,173.21 646.21,177.94 652.11,178.17 662.18,171.79 				"/>
				<polygon class="st1" points="653.46,182.75 648.11,198.7 652.11,194.54 656.8,192.57 665.37,184.1 659.28,181.37 				"/>
				<polygon class="st1" points="652.11,194.54 653.86,196.93 656.8,192.57 				"/>
				<polygon class="st1" points="652.11,178.17 659.28,181.37 665.37,184.1 682.4,184.1 691.36,183.74 673.55,179.01 695.3,179.01 
					662.18,171.79 				"/>
				<polygon class="st1" points="653.86,196.93 652.16,210.91 652.36,211.2 662.33,210.65 663.37,205.4 672.14,197.46 
					658.68,202.26 665.83,186.35 656.8,192.57 				"/>
				<polygon class="st1" points="652.36,211.2 657.27,218.19 661.41,215.27 662.33,210.65 				"/>
				<polygon class="st1" points="656.8,192.57 665.83,186.35 682.4,184.1 665.37,184.1 				"/>
				<polygon class="st1" points="665.83,186.35 658.68,202.26 672.14,197.46 679.3,192.57 687.38,190.89 673.55,189.47 682.4,184.1 
									"/>
				<polygon class="st1" points="661.41,215.27 660.32,222.33 669.64,220.65 666.23,217.42 670.65,214.94 672.14,206.51 
					672.14,197.46 664.88,207.64 				"/>
				<polygon class="st1" points="660.32,222.33 666.23,231.33 678.07,224.39 677.03,213.28 672.14,206.51 670.65,214.94 
					669.64,220.65 				"/>
				<polygon class="st1" points="662.33,210.65 661.41,215.27 664.88,207.64 672.14,197.46 663.37,205.4 				"/>
				<polygon class="st1" points="666.23,231.33 667.4,233.15 667.42,233.15 678.07,224.39 				"/>
				<polygon class="st1" points="666.23,217.42 669.64,220.65 670.65,214.94 				"/>
				<polygon class="st1" points="678.07,224.39 667.42,233.15 674.77,232.68 679.68,223.08 				"/>
				<polygon class="st1" points="667.42,233.15 671.8,239.83 675.76,235.29 674.77,232.68 				"/>
				<polygon class="st1" points="675.76,235.29 671.8,239.83 675.63,245.67 677.03,238.61 				"/>
				<polygon class="st1" points="672.14,197.46 672.14,206.51 679.95,200.84 692.67,198.21 687.38,190.89 679.3,192.57 				"/>
				<polygon class="st1" points="672.14,206.51 677.03,213.28 681.27,204.83 681.27,204.8 679.95,200.84 				"/>
				<polygon class="st1" points="673.55,179.01 691.36,183.74 691.38,183.74 704.42,183.21 695.3,179.01 				"/>
				<polygon class="st1" points="673.55,189.47 687.38,190.89 691.38,189.47 696.39,188.06 718.71,190.91 704.39,185.8 682.4,184.1 
									"/>
				<polygon class="st1" points="679.68,223.08 674.77,232.68 679.48,231.4 686.92,223.99 				"/>
				<polygon class="st1" points="674.77,232.68 675.76,235.29 677.03,238.61 679.48,231.4 				"/>
				<polygon class="st1" points="677.03,238.61 675.63,245.67 677.03,253.13 677.05,253.13 686.92,252.73 692.67,239.65 
					685.28,239.03 690.21,224.39 679.48,231.4 				"/>
				<polygon class="st1" points="681.27,204.83 677.03,213.28 681.76,206.31 				"/>
				<polygon class="st1" points="681.76,206.31 677.03,213.28 679.68,223.08 686.92,223.99 686.94,223.99 697.38,217.24 
					707.93,211.22 684.81,205.4 684.81,205.38 				"/>
				<polygon class="st1" points="677.03,213.28 678.07,224.39 679.68,223.08 				"/>
				<polygon class="st1" points="677.05,253.13 677.98,258.08 680.99,256.98 686.92,252.73 				"/>
				<polygon class="st1" points="677.98,258.08 680.06,269.12 683.33,260.47 680.99,256.98 				"/>
				<polygon class="st1" points="679.48,231.4 690.21,224.39 686.94,223.99 686.92,223.99 				"/>
				<polygon class="st1" points="679.95,200.84 681.27,204.8 696.39,200.47 692.67,198.21 				"/>
				<polygon class="st1" points="685.77,270.54 685.59,263.86 683.33,260.47 680.06,269.12 685.99,279.57 				"/>
				<polygon class="st1" points="680.99,256.98 683.33,260.47 685.59,263.86 686.92,252.73 				"/>
				<polygon class="st1" points="681.27,204.8 681.27,204.83 681.76,206.31 684.81,205.38 697.93,201.42 696.39,200.47 				"/>
				<polygon class="st1" points="682.4,184.1 704.39,185.8 718.71,190.91 718.73,190.91 729.2,194.65 704.42,183.21 691.38,183.74 
					691.36,183.74 				"/>
				<polygon class="st1" points="684.81,205.38 684.81,205.4 707.93,211.22 724.48,211.22 743.18,214.94 729.37,204.8 718.73,199.1 
					697.93,201.42 				"/>
				<polygon class="st1" points="690.21,224.39 685.28,239.03 692.67,239.65 708.91,226.86 700.37,224.39 710.1,213.72 
					709.26,213.85 697.38,217.24 				"/>
				<polygon class="st1" points="686.92,252.73 685.59,263.86 685.77,270.54 708.64,258.08 710.83,253.1 693.97,256.98 
					694.92,239.83 				"/>
				<polygon class="st1" points="708.64,258.08 685.77,270.54 685.99,279.57 695.3,275.45 703.35,270.14 				"/>
				<polygon class="st1" points="685.99,279.57 696.41,284.19 699.02,276.76 699.06,276.62 695.3,275.45 				"/>
				<polygon class="st1" points="692.67,239.65 686.92,252.73 694.92,239.83 				"/>
				<polygon class="st1" points="697.38,217.24 686.94,223.99 690.21,224.39 				"/>
				<polygon class="st1" points="687.38,190.89 692.67,198.21 696.39,200.47 697.93,201.42 695.21,198.21 691.38,189.47 				"/>
				<polygon class="st1" points="691.38,189.47 695.21,198.21 697.93,201.42 693.22,190.89 706.61,192.57 696.39,188.06 				"/>
				<polygon class="st1" points="692.67,239.65 694.92,239.83 712.98,228.04 708.91,226.86 				"/>
				<polygon class="st1" points="693.22,190.89 697.93,201.42 718.73,199.1 706.61,192.57 				"/>
				<polygon class="st1" points="694.92,239.83 693.97,256.98 710.83,253.1 716.39,248.64 729.2,238.32 709.42,240.03 
					712.98,228.04 				"/>
				<polygon class="st1" points="695.3,275.45 699.06,276.62 702.87,277.8 703.35,270.14 				"/>
				<polygon class="st1" points="696.39,188.06 706.61,192.57 729.2,194.65 718.73,190.91 718.71,190.91 				"/>
				<polygon class="st1" points="699.02,276.76 696.41,284.19 705.94,284.88 702.87,277.8 699.06,276.62 				"/>
				<polygon class="st1" points="697.38,217.24 709.26,213.85 710.1,213.72 710.1,213.7 724.48,211.22 707.93,211.22 				"/>
				<polygon class="st1" points="710.1,213.72 700.37,224.39 708.91,226.86 732.8,219.25 718.47,217 724.48,211.22 710.1,213.7 				
					"/>
				<polygon class="st1" points="702.07,291.14 700.57,298.35 702.87,306.4 710.92,291.8 722.21,285.25 719.48,280.76 
					711.12,285.25 				"/>
				<polygon class="st1" points="703.35,270.14 702.87,277.8 705.94,284.88 711.12,285.25 710.1,274.9 722.36,253.77 712.54,256.98 
									"/>
				<polygon class="st1" points="710.92,291.8 702.87,306.4 711.87,293.73 713.53,292.35 722.21,285.25 				"/>
				<polygon class="st1" points="711.87,293.73 702.87,306.4 706.41,307.53 704.9,312.33 716.39,325.32 717.34,305.54 
					710.83,303.48 				"/>
				<polygon class="st1" points="708.64,258.08 703.35,270.14 712.54,256.98 716.39,248.64 710.83,253.1 				"/>
				<polygon class="st1" points="706.61,192.57 718.73,199.1 729.37,204.8 749.73,212.5 729.2,194.65 				"/>
				<polygon class="st1" points="708.91,226.86 712.98,228.04 737.29,219.96 732.8,219.25 				"/>
				<polygon class="st1" points="712.98,228.04 709.42,240.03 729.2,238.32 755.92,220.65 737.29,219.96 				"/>
				<polygon class="st1" points="722.36,253.77 710.1,274.9 711.12,285.25 721.76,268.55 738.42,247.37 				"/>
				<polygon class="st1" points="711.87,293.73 710.83,303.48 717.34,305.54 720.55,302.38 714.09,300.87 713.53,292.35 				"/>
				<polygon class="st1" points="721.76,268.55 711.12,285.25 719.48,280.76 				"/>
				<polygon class="st1" points="716.39,248.64 712.54,256.98 722.36,253.77 734.15,238.88 				"/>
				<polygon class="st1" points="713.53,292.35 714.09,300.87 720.55,302.38 729.37,293.73 722.85,295.65 719.48,291.47 
					722.21,285.25 				"/>
				<polygon class="st1" points="717.34,305.54 716.39,325.32 719.48,305.94 721.48,303.48 729.37,293.73 720.55,302.38 				"/>
				<polygon class="st1" points="719.48,305.94 716.39,325.32 730.9,332.98 730.24,316.56 722.89,315.72 				"/>
				<polygon class="st1" points="716.39,248.64 734.15,238.88 744.97,229.81 744.99,229.78 755.92,220.65 729.2,238.32 				"/>
				<polygon class="st1" points="718.47,217 732.8,219.25 746.52,218.99 757.63,217.42 743.18,214.94 724.48,211.22 				"/>
				<polygon class="st1" points="721.76,268.55 719.48,280.76 726.34,274.61 738.42,247.37 				"/>
				<polygon class="st1" points="719.48,280.76 722.21,285.25 732.78,268.84 726.34,274.61 				"/>
				<polygon class="st1" points="722.21,285.25 719.48,291.47 722.85,295.65 729.37,293.73 735.17,279.57 730.55,275.58 				"/>
				<polygon class="st1" points="721.48,303.48 719.48,305.94 722.89,315.72 730.24,316.56 732.41,313.55 724.02,312.89 				"/>
				<polygon class="st1" points="729.37,293.73 721.48,303.48 724.02,312.89 732.41,313.55 740.88,301.78 734.51,304.26 
					729.95,301.12 				"/>
				<polygon class="st1" points="732.78,268.84 722.21,285.25 730.55,275.58 734.88,270.54 748.03,261.69 				"/>
				<polygon class="st1" points="734.15,238.88 722.36,253.77 738.42,247.37 752.23,235.58 				"/>
				<polygon class="st1" points="738.42,247.37 726.34,274.61 732.78,268.84 746.48,256.98 752.74,235.49 752.23,235.58 				"/>
				<polygon class="st1" points="735.17,279.57 729.37,293.73 737.29,281 745.77,273.55 				"/>
				<polygon class="st1" points="737.29,281 729.37,293.73 729.95,301.12 734.51,304.26 740.88,301.78 744.07,290.3 749.57,278.08 
					745.77,273.55 				"/>
				<polygon class="st1" points="729.37,204.8 743.18,214.94 757.63,217.42 749.73,212.5 				"/>
				<polygon class="st1" points="733.89,314.63 740.88,301.78 732.41,313.55 730.24,316.56 730.9,332.98 732.41,317.38 				"/>
				<polygon class="st1" points="734.88,270.54 730.55,275.58 735.17,279.57 745.77,273.55 748.03,261.69 				"/>
				<polygon class="st1" points="732.41,317.38 730.9,332.98 747.41,336.76 745.57,324.28 738.98,327.29 				"/>
				<polygon class="st1" points="733.89,314.63 732.41,317.38 738.98,327.29 745.57,324.28 745.57,318.68 739.68,324.28 				"/>
				<polygon class="st1" points="732.78,268.84 748.03,261.69 746.48,256.98 				"/>
				<polygon class="st1" points="732.8,219.25 737.29,219.96 755.92,220.65 746.52,218.99 				"/>
				<polygon class="st1" points="733.89,314.63 739.68,324.28 745.57,318.68 745.57,324.28 745.77,310.63 741.06,308.75 
					740.88,301.78 				"/>
				<polygon class="st1" points="734.15,238.88 752.23,235.58 759.73,229.19 759.97,222.68 744.99,229.78 744.97,229.81 				"/>
				<polygon class="st1" points="744.07,290.3 740.88,301.78 746.96,289.1 749.57,278.08 				"/>
				<polygon class="st1" points="746.96,289.1 740.88,301.78 741.06,308.75 745.77,310.63 752.74,294.63 				"/>
				<polygon class="st1" points="744.99,229.78 759.97,222.68 759.97,222.51 761.94,217.42 755.92,220.65 				"/>
				<polygon class="st1" points="745.77,310.63 745.57,324.28 747.65,311.38 				"/>
				<polygon class="st1" points="747.65,311.38 745.57,324.28 749.24,337.18 752.74,335.45 752.74,313.17 757.74,293.79 
					756.28,278.17 752.74,294.63 				"/>
				<polygon class="st1" points="745.57,324.28 747.41,336.76 749.24,337.18 				"/>
				<polygon class="st1" points="748.03,261.69 745.77,273.55 756.65,264.96 756.96,254.63 				"/>
				<polygon class="st1" points="745.77,273.55 749.57,278.08 756.65,264.96 				"/>
				<polygon class="st1" points="752.74,294.63 745.77,310.63 747.65,311.38 				"/>
				<polygon class="st1" points="752.74,235.49 746.48,256.98 761.94,236.11 762.05,235.69 759.73,229.19 752.23,235.58 				"/>
				<polygon class="st1" points="761.94,236.11 746.48,256.98 748.03,261.69 756.96,254.63 				"/>
				<polygon class="st1" points="746.52,218.99 755.92,220.65 761.94,217.42 757.63,217.42 				"/>
				<polygon class="st1" points="749.57,278.08 746.96,289.1 752.74,294.63 756.28,278.17 756.65,264.96 				"/>
				<polygon class="st1" points="752.74,313.17 752.74,335.45 755.81,336.89 759.66,314.32 757.74,293.79 				"/>
				<polygon class="st1" points="759.66,314.32 755.81,336.89 763.58,327.98 				"/>
				<polygon class="st1" points="756.28,278.17 757.74,293.79 765.48,313.15 766.28,306.94 				"/>
				<polygon class="st1" points="765.48,313.15 757.74,293.79 759.66,314.32 763.58,327.98 				"/>
				<polygon class="st1" points="779.35,278.04 769.35,306.8 770.15,313 772.05,327.82 779.82,336.76 782.89,335.32 786.37,337.05 
					788.2,336.63 804.71,332.84 819.22,325.19 830.71,312.18 829.2,307.38 832.74,306.27 835.04,298.22 833.54,291 824.49,285.12 
					829.67,284.74 839.23,284.04 846.64,280.76 836.08,280.76 836.08,266.65 847.81,266.65 847.81,252.53 858.67,252.53 860,245.54 
					863.83,239.7 864.27,239.01 864.58,238.55 864.34,238.39 850.2,238.39 850.2,245.45 842.92,245.45 842.92,237.84 850.2,237.84 
					850.2,224.28 864.34,224.28 864.34,212.08 864.34,210.16 850.2,210.16 850.2,217.42 842.92,217.42 842.92,222.86 837.52,222.86 
					837.52,217.22 842.92,217.22 842.92,209.81 850.2,209.81 850.2,196.04 863.98,196.04 863.98,188.63 871.4,188.63 871.4,195.69 
					878.45,195.69 878.45,181.93 892.57,181.93 894.56,181.93 890.42,173.76 884.91,173.08 873.43,171.66 840.31,178.87 
					831.22,183.08 806.41,194.49 785.88,212.37 777.98,217.28 773.67,217.28 775.64,222.37 775.64,222.55 775.88,229.03 
					773.56,235.56 773.67,235.96 778.65,254.5 778.96,264.83 				"/>
				<polygon class="st1" points="847.81,252.53 847.81,266.65 850.2,266.65 856,266.65 857.66,257.93 858.59,252.99 858.67,252.53 
									"/>
				<polygon class="st1" points="850.2,266.65 850.2,278.44 855.55,268.99 856,266.65 				"/>
				<polygon class="st1" points="857.66,257.93 856,266.65 861.93,266.65 861.93,252.53 858.67,252.53 858.59,252.99 				"/>
				<polygon class="st1" points="864.34,226.2 864.34,238.39 864.58,238.55 869.4,231.2 872.68,226.2 				"/>
				<polygon class="st1" points="864.34,224.28 864.34,226.2 872.68,226.2 875.31,222.2 874.21,215.12 878.34,218.04 878.45,217.88 
					878.45,212.08 864.34,212.08 				"/>
				<polygon class="st1" points="864.34,210.16 864.34,212.08 878.45,212.08 878.45,217.88 883.26,211.04 883.48,210.73 
					883.87,210.16 878.45,210.16 878.45,203.1 871.04,203.1 871.04,196.04 864.34,196.04 				"/>
				<polygon class="st1" points="865.13,252.53 865.13,253.7 879.25,253.7 879.25,239.59 865.13,239.59 				"/>
				<rect x="867.02" y="260.01" class="st1" width="14.12" height="14.14"/>
				<polygon class="st1" points="872.68,226.2 878.45,226.2 878.45,217.88 878.34,218.04 874.21,215.12 875.31,222.2 				"/>
				<polygon class="st1" points="878.45,203.1 878.45,210.16 883.87,210.16 890.11,201.29 891.57,196.04 878.45,196.04 				"/>
				<polygon class="st1" points="881.13,226.2 881.13,236.4 892.57,236.4 892.57,224.96 881.13,224.96 				"/>
				<polygon class="st1" points="883.87,210.16 889.74,210.16 892.57,210.16 892.57,196.04 891.57,196.04 890.11,201.29 				"/>
				<rect x="888.14" y="241.53" class="st1" width="14.12" height="14.12"/>
				<polygon class="st1" points="889.74,210.16 889.74,221.09 892.57,221.09 900.67,221.09 900.67,210.16 892.57,210.16 				"/>
				<polygon class="st1" points="892.57,192.53 892.57,196.04 899.58,196.04 906.69,196.04 906.69,181.93 894.56,181.93 
					895.2,183.21 892.68,192.13 				"/>
				<polygon class="st1" points="892.57,181.93 892.57,192.53 892.68,192.13 895.2,183.21 894.56,181.93 				"/>
				<polygon class="st1" points="899.58,199.78 899.58,207.42 900.67,207.42 906.88,207.42 906.88,199.78 				"/>
				<rect x="906.69" y="224.39" class="st1" width="7.3" height="7.63"/>
				<rect x="910.34" y="213.01" class="st1" width="7.3" height="7.63"/>
				<rect x="913.99" y="194.41" class="st1" width="5.38" height="5.38"/>
				<rect x="924.41" y="204.85" class="st1" width="7.3" height="7.63"/>
				<rect x="936.82" y="198.63" class="st1" width="5.35" height="5.6"/>
			</g>
		</g>
	</g>
	<g class="st0">
		<path class="st1" d="M74.59,591.49c-1.39,1.06-2.87,1.97-4.45,2.72c-1.58,0.75-3.28,1.34-5.11,1.76c-1.84,0.42-3.84,0.64-6,0.64
			c-3.53,0-6.8-0.66-9.81-1.98c-3.01-1.32-5.61-3.12-7.8-5.4c-2.19-2.29-3.89-4.98-5.12-8.08c-1.22-3.1-1.84-6.42-1.84-9.95v-0.14
			c0-3.48,0.62-6.78,1.87-9.88c1.25-3.11,2.97-5.82,5.15-8.16c2.19-2.33,4.79-4.16,7.8-5.5c3.01-1.34,6.3-2.01,9.88-2.01
			c2.21,0,4.21,0.19,6,0.57c1.79,0.38,3.45,0.92,4.98,1.62c1.53,0.7,2.97,1.54,4.31,2.5c1.34,0.97,2.65,2.04,3.92,3.21l-2.61,2.68
			c-1.08-1.03-2.21-2-3.39-2.89c-1.18-0.89-2.43-1.66-3.78-2.29c-1.34-0.64-2.8-1.14-4.38-1.52c-1.58-0.38-3.28-0.57-5.12-0.57
			c-2.96,0-5.72,0.57-8.26,1.69c-2.54,1.13-4.74,2.69-6.6,4.69c-1.86,2-3.32,4.34-4.38,7.02c-1.06,2.68-1.59,5.58-1.59,8.68v0.14
			c0,3.1,0.54,6.01,1.62,8.72c1.08,2.71,2.55,5.06,4.41,7.06c1.86,2,4.06,3.58,6.6,4.73c2.54,1.15,5.29,1.73,8.26,1.73
			c3.58,0,6.68-0.66,9.32-1.98c2.63-1.32,5.2-3.22,7.69-5.72l2.47,2.4C77.33,589.27,75.98,590.43,74.59,591.49z"/>
		<path class="st1" d="M154.21,580.76c-1.2,3.08-2.88,5.8-5.05,8.15s-4.79,4.22-7.87,5.61c-3.08,1.39-6.48,2.08-10.2,2.08
			c-3.77,0-7.17-0.7-10.2-2.08c-3.04-1.39-5.64-3.25-7.8-5.58c-2.16-2.33-3.83-5.02-5.01-8.08c-1.18-3.06-1.77-6.28-1.77-9.67v-0.14
			c0-3.39,0.6-6.62,1.8-9.7c1.2-3.09,2.89-5.8,5.05-8.16c2.17-2.35,4.78-4.22,7.84-5.61c3.06-1.39,6.47-2.09,10.24-2.09
			c3.71,0,7.1,0.7,10.16,2.09c3.06,1.39,5.67,3.25,7.84,5.58c2.16,2.33,3.83,5.02,5.01,8.08c1.18,3.06,1.76,6.28,1.76,9.67
			c0.05,0.04,0.05,0.09,0,0.14C156.01,574.44,155.41,577.68,154.21,580.76z M152.2,571.06c0-3.06-0.53-5.94-1.59-8.65
			c-1.06-2.7-2.52-5.06-4.38-7.06c-1.86-2-4.09-3.59-6.67-4.77c-2.59-1.18-5.41-1.77-8.47-1.77c-3.06,0-5.87,0.58-8.44,1.73
			c-2.57,1.16-4.78,2.73-6.63,4.73c-1.86,2-3.31,4.34-4.34,7.02c-1.04,2.68-1.55,5.55-1.55,8.61v0.14c0,3.06,0.53,5.94,1.59,8.65
			c1.06,2.71,2.52,5.06,4.38,7.06c1.86,2,4.08,3.59,6.67,4.76c2.59,1.18,5.41,1.77,8.47,1.77c3.06,0,5.87-0.58,8.43-1.73
			s4.78-2.73,6.64-4.73c1.86-2,3.3-4.34,4.34-7.03c1.04-2.68,1.56-5.55,1.56-8.61V571.06z"/>
		<path class="st1" d="M228,595.76l-34.8-43.9v43.9h-3.53v-49.41h3.46l34.09,42.99v-42.99h3.53v49.41H228z"/>
		<path class="st1" d="M266.61,595.76v-49.41h35.15v3.32h-31.48v19.55h28.3v3.32h-28.3v19.9h31.83v3.32H266.61z"/>
		<path class="st1" d="M373.02,591.49c-1.39,1.06-2.87,1.97-4.45,2.72c-1.58,0.75-3.28,1.34-5.11,1.76c-1.84,0.42-3.84,0.64-6,0.64
			c-3.53,0-6.8-0.66-9.81-1.98c-3.01-1.32-5.61-3.12-7.8-5.4c-2.19-2.29-3.89-4.98-5.12-8.08s-1.84-6.42-1.84-9.95v-0.14
			c0-3.48,0.62-6.78,1.87-9.88c1.25-3.11,2.97-5.82,5.15-8.16c2.19-2.33,4.79-4.16,7.8-5.5c3.01-1.34,6.3-2.01,9.88-2.01
			c2.21,0,4.21,0.19,6,0.57c1.79,0.38,3.45,0.92,4.98,1.62c1.53,0.7,2.97,1.54,4.31,2.5c1.34,0.97,2.65,2.04,3.92,3.21l-2.61,2.68
			c-1.08-1.03-2.21-2-3.39-2.89c-1.18-0.89-2.43-1.66-3.78-2.29c-1.34-0.64-2.8-1.14-4.38-1.52c-1.58-0.38-3.28-0.57-5.12-0.57
			c-2.96,0-5.72,0.57-8.26,1.69c-2.54,1.13-4.74,2.69-6.6,4.69c-1.86,2-3.32,4.34-4.38,7.02c-1.06,2.68-1.59,5.58-1.59,8.68v0.14
			c0,3.1,0.54,6.01,1.62,8.72c1.08,2.71,2.55,5.06,4.41,7.06c1.86,2,4.06,3.58,6.6,4.73c2.54,1.15,5.29,1.73,8.26,1.73
			c3.58,0,6.68-0.66,9.32-1.98c2.63-1.32,5.2-3.22,7.69-5.72l2.47,2.4C375.76,589.27,374.41,590.43,373.02,591.49z"/>
		<path class="st1" d="M425.71,549.67v46.09h-3.67v-46.09h-17.22v-3.32h38.11v3.32H425.71z"/>
		<path class="st1" d="M510.2,595.76l-6.28-13.84h-29.15l-6.28,13.84h-3.81L487.68,546h3.53l23.01,49.76H510.2z M489.37,550.02
			l-13.06,28.59h26.05L489.37,550.02z"/>
		<path class="st1" d="M584.17,595.76l-34.8-43.9v43.9h-3.53v-49.41h3.46l34.09,42.99v-42.99h3.53v49.41H584.17z"/>
		<path class="st1" d="M663.57,580.8c-1.27,3.01-3.07,5.62-5.4,7.84c-2.33,2.21-5.11,3.95-8.33,5.22c-3.22,1.27-6.77,1.9-10.62,1.9
			h-16.44v-49.41h16.44c3.86,0,7.4,0.62,10.62,1.87c3.22,1.25,6,2.98,8.33,5.19c2.33,2.21,4.13,4.81,5.4,7.8
			c1.27,2.99,1.9,6.22,1.9,9.71v0.14C665.48,574.54,664.85,577.79,663.57,580.8z M661.67,571.06c0-2.93-0.53-5.69-1.59-8.28
			c-1.06-2.59-2.55-4.86-4.48-6.8c-1.93-1.94-4.28-3.47-7.06-4.6c-2.78-1.13-5.88-1.7-9.32-1.7h-12.77v42.77h12.77
			c3.43,0,6.54-0.55,9.32-1.66s5.13-2.62,7.06-4.53c1.93-1.91,3.42-4.16,4.48-6.73c1.06-2.58,1.59-5.35,1.59-8.32V571.06z"/>
		<path class="st1" d="M744.85,580.76c-1.2,3.08-2.88,5.8-5.05,8.15c-2.17,2.35-4.79,4.22-7.87,5.61c-3.08,1.39-6.48,2.08-10.2,2.08
			c-3.77,0-7.17-0.7-10.2-2.08c-3.04-1.39-5.64-3.25-7.8-5.58c-2.16-2.33-3.83-5.02-5.01-8.08c-1.18-3.06-1.77-6.28-1.77-9.67v-0.14
			c0-3.39,0.6-6.62,1.8-9.7c1.2-3.09,2.89-5.8,5.05-8.16c2.17-2.35,4.78-4.22,7.84-5.61c3.06-1.39,6.47-2.09,10.24-2.09
			c3.71,0,7.1,0.7,10.16,2.09c3.06,1.39,5.67,3.25,7.84,5.58c2.16,2.33,3.83,5.02,5.01,8.08c1.18,3.06,1.76,6.28,1.76,9.67
			c0.05,0.04,0.05,0.09,0,0.14C746.65,574.44,746.05,577.68,744.85,580.76z M742.84,571.06c0-3.06-0.53-5.94-1.59-8.65
			c-1.06-2.7-2.52-5.06-4.38-7.06c-1.86-2-4.08-3.59-6.67-4.77c-2.59-1.18-5.41-1.77-8.47-1.77c-3.06,0-5.87,0.58-8.44,1.73
			c-2.57,1.16-4.78,2.73-6.63,4.73c-1.86,2-3.31,4.34-4.34,7.02c-1.04,2.68-1.55,5.55-1.55,8.61v0.14c0,3.06,0.53,5.94,1.59,8.65
			c1.06,2.71,2.52,5.06,4.38,7.06c1.86,2,4.08,3.59,6.67,4.76c2.59,1.18,5.41,1.77,8.47,1.77c3.06,0,5.87-0.58,8.43-1.73
			s4.78-2.73,6.64-4.73c1.86-2,3.3-4.34,4.34-7.03c1.04-2.68,1.56-5.55,1.56-8.61V571.06z"/>
		<path class="st1" d="M826.34,549.67v20.4h27.95v3.31h-27.95v22.38h-3.67v-49.41h34.8v3.32H826.34z"/>
		<path class="st1" d="M928.41,584.15c-0.99,2.71-2.38,4.98-4.17,6.81c-1.79,1.83-3.91,3.22-6.38,4.17
			c-2.47,0.94-5.21,1.41-8.22,1.41c-2.97,0-5.68-0.46-8.16-1.38s-4.61-2.28-6.42-4.09c-1.81-1.81-3.21-4.03-4.2-6.67
			c-0.99-2.63-1.48-5.69-1.48-9.17v-28.87h3.67v28.52c0,5.88,1.47,10.41,4.41,13.59c2.94,3.18,7.05,4.76,12.32,4.76
			c2.49,0,4.75-0.38,6.78-1.13c2.02-0.75,3.76-1.88,5.19-3.39c1.43-1.5,2.54-3.39,3.32-5.65c0.78-2.26,1.17-4.87,1.17-7.83v-28.87
			h3.67v28.45C929.89,578.33,929.4,581.44,928.41,584.15z"/>
		<path class="st1" d="M982.33,549.67v46.09h-3.67v-46.09h-17.22v-3.32h38.11v3.32H982.33z"/>
		<path class="st1" d="M1070.14,584.15c-0.99,2.71-2.38,4.98-4.17,6.81c-1.79,1.83-3.91,3.22-6.38,4.17
			c-2.47,0.94-5.21,1.41-8.22,1.41c-2.97,0-5.68-0.46-8.16-1.38c-2.47-0.92-4.61-2.28-6.42-4.09c-1.81-1.81-3.21-4.03-4.2-6.67
			c-0.99-2.63-1.48-5.69-1.48-9.17v-28.87h3.67v28.52c0,5.88,1.47,10.41,4.41,13.59c2.94,3.18,7.05,4.76,12.32,4.76
			c2.49,0,4.75-0.38,6.78-1.13c2.02-0.75,3.76-1.88,5.19-3.39c1.43-1.5,2.54-3.39,3.32-5.65c0.78-2.26,1.17-4.87,1.17-7.83v-28.87
			h3.67v28.45C1071.62,578.33,1071.13,581.44,1070.14,584.15z"/>
		<path class="st1" d="M1142.27,595.76l-15.74-20.47h-16.16v20.47h-3.67v-49.41h20.75c2.69,0,5.11,0.34,7.27,1.02
			c2.17,0.69,4.01,1.65,5.54,2.89c1.53,1.25,2.72,2.73,3.57,4.45c0.85,1.72,1.27,3.61,1.27,5.68v0.14c0,2.07-0.37,3.92-1.09,5.54
			c-0.73,1.62-1.74,3.02-3.04,4.2c-1.29,1.18-2.82,2.13-4.58,2.86c-1.77,0.73-3.69,1.23-5.75,1.51l16.3,21.11H1142.27z
			 M1141.43,560.5c0-3.35-1.24-5.99-3.7-7.93c-2.47-1.93-5.97-2.9-10.48-2.9h-16.87v22.31h16.65c2.07,0,3.99-0.26,5.76-0.78
			c1.76-0.52,3.28-1.26,4.55-2.23s2.27-2.15,3-3.54c0.73-1.39,1.09-2.99,1.09-4.78V560.5z"/>
		<path class="st1" d="M1224.61,580.76c-1.2,3.08-2.88,5.8-5.05,8.15c-2.17,2.35-4.79,4.22-7.87,5.61
			c-3.08,1.39-6.48,2.08-10.2,2.08c-3.77,0-7.17-0.7-10.2-2.08c-3.04-1.39-5.64-3.25-7.8-5.58c-2.16-2.33-3.83-5.02-5.01-8.08
			c-1.18-3.06-1.77-6.28-1.77-9.67v-0.14c0-3.39,0.6-6.62,1.8-9.7c1.2-3.09,2.89-5.8,5.05-8.16c2.17-2.35,4.78-4.22,7.84-5.61
			c3.06-1.39,6.47-2.09,10.24-2.09c3.71,0,7.1,0.7,10.16,2.09c3.06,1.39,5.67,3.25,7.84,5.58c2.16,2.33,3.83,5.02,5.01,8.08
			c1.18,3.06,1.76,6.28,1.76,9.67c0.05,0.04,0.05,0.09,0,0.14C1226.41,574.44,1225.81,577.68,1224.61,580.76z M1222.6,571.06
			c0-3.06-0.53-5.94-1.59-8.65c-1.06-2.7-2.52-5.06-4.38-7.06c-1.86-2-4.09-3.59-6.67-4.77c-2.59-1.18-5.41-1.77-8.47-1.77
			c-3.06,0-5.87,0.58-8.44,1.73c-2.57,1.16-4.78,2.73-6.63,4.73c-1.86,2-3.31,4.34-4.34,7.02c-1.04,2.68-1.55,5.55-1.55,8.61v0.14
			c0,3.06,0.53,5.94,1.59,8.65c1.06,2.71,2.52,5.06,4.38,7.06c1.86,2,4.08,3.59,6.67,4.76c2.59,1.18,5.41,1.77,8.47,1.77
			c3.06,0,5.87-0.58,8.43-1.73c2.57-1.15,4.78-2.73,6.64-4.73c1.86-2,3.3-4.34,4.34-7.03c1.04-2.68,1.56-5.55,1.56-8.61V571.06z"/>
		<path class="st1" d="M1291.59,588.46c-0.82,1.67-1.95,3.09-3.39,4.27c-1.44,1.18-3.15,2.09-5.15,2.75c-2,0.66-4.2,0.99-6.6,0.99
			c-3.95,0-7.51-0.66-10.69-1.98c-3.18-1.31-6.25-3.29-9.21-5.93l2.4-2.75c1.36,1.27,2.72,2.36,4.06,3.28
			c1.34,0.92,2.72,1.67,4.13,2.26c1.41,0.59,2.89,1.04,4.45,1.34c1.56,0.3,3.25,0.46,5.08,0.46c1.83,0,3.53-0.24,5.08-0.74
			c1.55-0.5,2.87-1.18,3.96-2.05c1.08-0.87,1.93-1.9,2.54-3.1c0.61-1.2,0.92-2.51,0.92-3.92v-0.14c0-1.31-0.2-2.49-0.6-3.53
			c-0.4-1.03-1.13-1.98-2.19-2.82c-1.06-0.85-2.48-1.61-4.27-2.29c-1.79-0.68-4.09-1.3-6.91-1.87c-2.97-0.61-5.51-1.33-7.63-2.15
			c-2.11-0.82-3.85-1.79-5.18-2.89c-1.34-1.1-2.32-2.39-2.93-3.85c-0.61-1.46-0.92-3.13-0.92-5.01v-0.14c0-1.84,0.4-3.54,1.2-5.12
			c0.8-1.58,1.9-2.95,3.32-4.13c1.41-1.18,3.08-2.09,5.01-2.75c1.93-0.66,4.05-0.99,6.35-0.99c3.58,0,6.67,0.5,9.28,1.48
			c2.61,0.99,5.17,2.49,7.66,4.52l-2.33,2.89c-2.35-2.02-4.72-3.46-7.09-4.3c-2.38-0.85-4.93-1.27-7.66-1.27
			c-1.84,0-3.49,0.25-4.98,0.74c-1.49,0.49-2.76,1.16-3.81,2.01s-1.87,1.84-2.43,2.97c-0.57,1.13-0.85,2.33-0.85,3.6v0.14
			c0,1.32,0.2,2.51,0.6,3.57c0.4,1.06,1.13,2.02,2.19,2.89c1.06,0.87,2.53,1.66,4.41,2.37c1.88,0.7,4.28,1.36,7.2,1.98
			c5.74,1.18,9.88,2.83,12.42,4.98c2.54,2.14,3.81,5.02,3.81,8.65v0.14C1292.83,584.96,1292.41,586.79,1291.59,588.46z"/>
	</g>
</g>
</svg>
